<?xml version="1.0" encoding="utf-8"?>
<!-- Generator: Adobe Illustrator 16.0.4, SVG Export Plug-In . SVG Version: 6.00 Build 0)  -->
<!DOCTYPE svg PUBLIC "-//W3C//DTD SVG 1.1//EN" "http://www.w3.org/Graphics/SVG/1.1/DTD/svg11.dtd">
<svg version="1.1" id="Layer_1" xmlns="http://www.w3.org/2000/svg" xmlns:xlink="http://www.w3.org/1999/xlink" x="0px" y="0px"
	 width="430.676px" height="442px" viewBox="0 0 430.676 442" enable-background="new 0 0 430.676 442" xml:space="preserve">
<g>
	<g>
		<path fill="#B20000" d="M157.666,426C144.687,426,133,414.67,133,401.6V38.716C133,26.115,144.231,16,157.666,16h234.386
			C404.99,16,415,25.688,415,38.716v71.432c0,13.53-10.434,24.852-22.948,24.852H251v27h65.93c12.938,0,23.07,10.256,23.07,23.284
			v71.431c0,13.53-10.558,24.285-23.07,24.285H251v120.6c0,13.529-10.036,24.4-22.55,24.4H157.666z"/>
		<path fill="#CCCCCC" d="M392.052,21C401.971,21,409,28.709,409,38.716v71.432c0,10.006-7.029,18.852-16.948,18.852H246v39h10.497
			h60.433c9.915,0,17.07,7.277,17.07,17.284v71.431c0,10.007-7.155,19.285-17.07,19.285h-60.433c-9.917,0-10.497,0-10.497,0v125.6
			c0,10.006-7.634,19.4-17.55,19.4h-70.784c-9.917,0-18.666-9.395-18.666-19.4V293.104c0-10.007,0-26.382,0-36.389v-71.431
			c0-10.007,0-26.382,0-36.389v-2.359c0-10.007,0-26.382,0-36.389V38.716C139,28.709,147.749,21,157.666,21h70.784
			c9.916,0,26.142,0,36.059,0H392 M392.052,10H264.509H228.45h-70.784C141.199,10,128,23.083,128,38.716v71.432v36.389v2.359v36.389
			v71.431v36.389V401.6c0,16.001,13.757,30.4,29.666,30.4h70.784c15.547,0,28.55-13.839,28.55-30.4V287h59.93
			c15.546,0,28.07-13.722,28.07-30.285v-71.431C345,169.121,333.003,157,316.93,157H257v-17h135.052
			C407.599,140,420,126.71,420,110.148V38.716C420,22.553,408.126,10,392.052,10L392.052,10z"/>
	</g>
	<g>
		<path fill="#B20000" d="M290.48,332.101c-4.609,0-9.48-3.51-9.48-11.351V124.368c0-7.841,4.871-11.352,9.48-11.352
			c2.695,0,5.506,1.139,8.135,3.385l111.205,94.96c3.379,2.886,5.343,6.967,5.343,11.197s-1.923,8.311-5.3,11.197l-111.256,94.96
			C295.979,330.962,293.176,332.101,290.48,332.101z"/>
		<path fill="#CCCCCC" d="M290.73,118.517c1.285,0,2.8,0.667,4.437,2.066l111.144,94.96c4.516,3.858,4.513,10.172-0.003,14.03
			l-111.153,94.96c-1.637,1.398-3.138,2.066-4.423,2.066c-2.259,0-3.731-2.064-3.731-5.851v-34.198c0-5.94,0-15.66,0-21.6v-86.22
			c0-5.94,0-15.66,0-21.6v-32.765C287,120.581,288.473,118.517,290.73,118.517 M290.701,107.516L290.701,107.516
			c-4.845,0-9.147,2.339-11.858,6.417c-1.905,2.867-2.843,6.378-2.843,10.435v32.765v21.6v86.22v21.6v34.198
			c0,4.057,0.938,7.567,2.843,10.435c2.711,4.078,7.029,6.416,11.873,6.416c2.779,0,7.04-0.815,11.589-4.703l111.148-94.96
			c4.602-3.932,7.239-9.538,7.239-15.378s-2.641-11.446-7.242-15.378L302.298,112.22
			C297.748,108.333,293.48,107.516,290.701,107.516L290.701,107.516z"/>
	</g>
	<rect x="255" y="168" fill="#B20000" width="58" height="108"/>
</g>
<g>
	<g>
		<path fill="#E01717" d="M39.671,426C26.692,426,15,414.67,15,401.6V38.716C15,26.115,26.237,16,39.671,16h234.388
			C286.997,16,297,25.688,297,38.716v71.432c0,13.53-10.428,24.852-22.941,24.852H133v27h65.935
			C211.873,162,222,172.256,222,185.284v71.431c0,13.53-10.551,24.285-23.065,24.285H133v120.6c0,13.529-10.03,24.4-22.544,24.4
			H39.671z"/>
		<path fill="#CCCCCC" d="M274.059,21C283.976,21,291,28.709,291,38.716v71.432c0,10.006-7.024,18.852-16.941,18.852H128v39h10.502
			h60.433c9.917,0,17.065,7.277,17.065,17.284v71.431c0,10.007-7.148,19.285-17.065,19.285h-60.433c-9.917,0-10.502,0-10.502,0
			v125.6c0,10.006-7.628,19.4-17.544,19.4H39.671C29.755,421,21,411.605,21,401.6V293.104c0-10.007,0-26.382,0-36.389v-71.431
			c0-10.007,0-26.382,0-36.389v-2.359c0-10.007,0-26.382,0-36.389V38.716C21,28.709,29.755,21,39.671,21h70.784
			c9.917,0,26.143,0,36.059,0H274 M274.059,10H146.515h-36.059H39.671C23.205,10,10,23.083,10,38.716v71.432v36.389v2.359v36.389
			v71.431v36.389V401.6c0,16.001,13.763,30.4,29.671,30.4h70.784C126.002,432,139,418.161,139,401.6V287h59.935
			C214.481,287,227,273.278,227,256.715v-71.431C227,169.121,215.008,157,198.935,157H139v-17h135.059
			C289.605,140,302,126.71,302,110.148V38.716C302,22.553,290.132,10,274.059,10L274.059,10z"/>
	</g>
	<g>
		<path fill="#E01717" d="M172.483,332.101c-4.608,0-9.483-3.51-9.483-11.351V124.368c0-7.841,4.875-11.352,9.484-11.352
			c2.695,0,5.507,1.139,8.136,3.385l111.206,94.96c3.378,2.886,5.342,6.967,5.342,11.197s-1.922,8.311-5.299,11.197l-111.256,94.96
			C177.983,330.962,175.179,332.101,172.483,332.101z"/>
		<path fill="#CCCCCC" d="M172.734,118.517c1.284,0,2.801,0.667,4.438,2.066l111.144,94.96c4.516,3.858,4.512,10.172-0.004,14.03
			l-111.152,94.96c-1.637,1.398-3.142,2.066-4.426,2.066c-2.259,0-3.734-2.064-3.734-5.851v-34.198c0-5.94,0-15.66,0-21.6v-86.22
			c0-5.94,0-15.66,0-21.6v-32.765C169,120.581,170.476,118.517,172.734,118.517 M172.708,107.516L172.708,107.516
			c-4.845,0-9.151,2.339-11.862,6.417C158.94,116.8,158,120.311,158,124.368v32.765v21.6v86.22v21.6v34.198
			c0,4.057,0.94,7.567,2.846,10.435c2.711,4.077,7.031,6.416,11.875,6.416c2.779,0,7.04-0.815,11.59-4.703l111.147-94.96
			c4.602-3.932,7.24-9.538,7.24-15.378s-2.641-11.446-7.242-15.378L184.305,112.22C179.755,108.333,175.487,107.516,172.708,107.516
			L172.708,107.516z"/>
	</g>
	<rect x="137" y="168" fill="#E01717" width="58" height="108"/>
</g>
</svg>
